<svg xmlns="http://www.w3.org/2000/svg" xmlns:xlink="http://www.w3.org/1999/xlink" width="20.033" height="45.294" viewBox="0 0 20.033 45.294">
  <defs>
    <clipPath id="clip-path">
      <path id="Path_2582" data-name="Path 2582" d="M1057.492,2592.836c.075.074.166.163.234.221a.326.326,0,0,0,.168.075c.436.061.909.126,1.406.166.674.054,1.354.081,1.955.087h.161c.578-.007,1.122-.033,1.795-.087.5-.039.969-.1,1.406-.166a.326.326,0,0,0,.168-.075c.068-.059.159-.147.234-.221a.307.307,0,0,0,.072-.332,2.653,2.653,0,0,0-.273-.514,2.924,2.924,0,0,0-1.093-.945h-4.939a2.922,2.922,0,0,0-1.093.945,2.646,2.646,0,0,0-.273.514A.307.307,0,0,0,1057.492,2592.836Z" transform="translate(-1057.398 -2591.045)" fill="none"/>
    </clipPath>
  </defs>
  <g id="Group_59105" data-name="Group 59105" transform="translate(754.288 473.9) rotate(-179)">
    <path id="Path_2548" data-name="Path 2548" d="M1142.2,1811.521h.661a1.261,1.261,0,0,0,.763-.258l.828-.63h-4.5l.828.63a1.26,1.26,0,0,0,.763.258h.661" transform="translate(-390.053 -1367.775)" fill="#438689" opacity="0.85"/>
    <path id="Path_2549" data-name="Path 2549" d="M919.691,2042.723a8.515,8.515,0,0,1-1.644,1.081l-.086.042a8.635,8.635,0,0,1-3.791.864h-2.3a8.635,8.635,0,0,1-3.791-.864l-.086-.042a8.511,8.511,0,0,1-1.644-1.081.363.363,0,0,1-.033-.032l-.093.364a.381.381,0,0,0,.126.387,8.477,8.477,0,0,0,1.644,1.081l.086.043a8.638,8.638,0,0,0,3.791.864h2.3a8.639,8.639,0,0,0,3.791-.864l.086-.043a8.481,8.481,0,0,0,1.644-1.081.381.381,0,0,0,.126-.387l-.093-.364A.43.43,0,0,1,919.691,2042.723Z" transform="translate(-160.868 -1595.311)" fill="#438689" opacity="0.85"/>
    <path id="Path_2550" data-name="Path 2550" d="M906.348,1785.246a8.494,8.494,0,0,0,1.644,1.081l.086.043a8.636,8.636,0,0,0,3.791.863h2.3a8.637,8.637,0,0,0,3.791-.863l.086-.043a8.5,8.5,0,0,0,1.644-1.081.382.382,0,0,0,.126-.388l-1.331-5.2a.391.391,0,0,0-.5-.268,15.307,15.307,0,0,1-4.968.718h0a15.309,15.309,0,0,1-4.967-.718.391.391,0,0,0-.5.268l-1.331,5.2A.382.382,0,0,0,906.348,1785.246Z" transform="translate(-160.868 -1337.117)" fill="#acabac" opacity="0.75"/>
    <path id="Path_2551" data-name="Path 2551" d="M927.315,1753.324l3.806-2.841a29.531,29.531,0,0,1-3.023-.571Z" transform="translate(-181.557 -1308.232)" fill="#fff" opacity="0.1"/>
    <path id="Path_2552" data-name="Path 2552" d="M899.121,1785v.98l7.846-5.812c-.42-.007-.855-.022-1.305-.049l-6.531,4.836Z" transform="translate(-153.911 -1337.849)" fill="#fff" opacity="0.1"/>
    <path id="Path_2553" data-name="Path 2553" d="M1251.455,1961.678l5.771-4.312-.2-.908-6.795,5.115Q1250.825,1961.645,1251.455,1961.678Z" transform="translate(-498.182 -1510.755)" fill="#fff" opacity="0.1"/>
    <path id="Path_2554" data-name="Path 2554" d="M1032.974,1773.6l9.824-7.286-.2-.875c-.991.241-.691-.767-1.938-.613l-10.5,7.976A17.136,17.136,0,0,0,1032.974,1773.6Z" transform="translate(-282.379 -1322.832)" fill="#fff" opacity="0.1"/>
    <path id="Path_2555" data-name="Path 2555" d="M903.581,1812.184a15.981,15.981,0,0,1-5.314.789h0a15.981,15.981,0,0,1-5.314-.789.416.416,0,0,0-.534.294l-1.254,5.034a9.071,9.071,0,0,0,1.724,1.159l.092.047a9.037,9.037,0,0,0,4.056.949h2.46a9.036,9.036,0,0,0,4.056-.949l.092-.047a9.071,9.071,0,0,0,1.724-1.159l-1.254-5.034A.416.416,0,0,0,903.581,1812.184Z" transform="translate(-146.116 -1369.267)" fill="none"/>
    <path id="Path_2556" data-name="Path 2556" d="M838.741,1735.394a10.117,10.117,0,0,0,1.962,1.326l.1.052a10.076,10.076,0,0,0,4.524,1.059h2.744a10.076,10.076,0,0,0,4.524-1.059l.1-.052a10.117,10.117,0,0,0,1.962-1.326.475.475,0,0,0,.151-.475l-1.588-6.373a.464.464,0,0,0-.6-.328,17.829,17.829,0,0,1-5.927.88h0a17.831,17.831,0,0,1-5.927-.88.464.464,0,0,0-.6.328l-1.588,6.373A.475.475,0,0,0,838.741,1735.394Zm1.164-.72,1.33-5.2a.39.39,0,0,1,.5-.268,15.3,15.3,0,0,0,4.966.718h0a15.3,15.3,0,0,0,4.966-.718.39.39,0,0,1,.5.268l1.33,5.2a.382.382,0,0,1-.126.388,8.5,8.5,0,0,1-1.644,1.081l-.086.042a8.634,8.634,0,0,1-3.79.864h-2.3a8.634,8.634,0,0,1-3.79-.864l-.086-.042a8.5,8.5,0,0,1-1.643-1.081A.382.382,0,0,1,839.906,1734.675Z" transform="translate(-94.55 -1286.933)" fill="#545454"/>
    <path id="Path_2557" data-name="Path 2557" d="M813.77,456.731h0a3.756,3.756,0,0,0,.895,1.264c.48.445,1.165,1.079,1.689,1.558a3.007,3.007,0,0,0,1.442.73c.405.081.835.159,1.212.209a22.841,22.841,0,0,0,2.96.2h0a22.84,22.84,0,0,0,2.96-.2c.377-.05.806-.128,1.212-.209a3.007,3.007,0,0,0,1.442-.73c.524-.479,1.209-1.113,1.689-1.558a3.755,3.755,0,0,0,.895-1.264h0a5.088,5.088,0,0,0,.418-2.041l-.134-31.121a17.638,17.638,0,0,0-.261-2.385c-.095-.53-.208-1.025-.331-1.482a5.235,5.235,0,0,0-1.342-2.34l-.06-.059-.062-.06a4.272,4.272,0,0,0-.405-.33,5.213,5.213,0,0,0-2.615-.984h0a24.214,24.214,0,0,0-3.406-.236,28.731,28.731,0,0,0-3.653.274h0a5.189,5.189,0,0,0-2.53,1.068c-.091.072-.173.142-.243.208l-.063.06-.07.07a5.236,5.236,0,0,0-1.333,2.334c-.122.455-.235.948-.33,1.477a17.658,17.658,0,0,0-.261,2.385l-.133,31.121A5.089,5.089,0,0,0,813.77,456.731ZM827.8,431.414a15.124,15.124,0,0,1,.284-2.917l.233-1.185a.231.231,0,0,1,.45-.017l.38,1.372a3.138,3.138,0,0,1,.113.785l.135,8.159.215,8.865a.454.454,0,0,1-.441-.346l-.733-3.016a22.509,22.509,0,0,1-.636-5.314Zm-5.545-11.748a12.036,12.036,0,0,1,3.245.521,11.3,11.3,0,0,1,2.136.924l-.373,5.727-.854-.128a29.892,29.892,0,0,0-8.874,0l-.854.128c-.124-2.125-.248-3.6-.372-5.727A12.656,12.656,0,0,1,822.25,419.666ZM814.7,447.788l1.423-5.72a.416.416,0,0,1,.534-.294,15.954,15.954,0,0,0,5.312.79h0a15.954,15.954,0,0,0,5.312-.79.416.416,0,0,1,.534.294l1.423,5.72a.427.427,0,0,1-.135.427,9.074,9.074,0,0,1-1.758,1.19l-.092.047a9.021,9.021,0,0,1-4.054.95h-2.459a9.021,9.021,0,0,1-4.054-.95l-.092-.047a9.076,9.076,0,0,1-1.758-1.19A.427.427,0,0,1,814.7,447.788Z" transform="translate(-69.815 0)"/>
    <path id="Path_2558" data-name="Path 2558" d="M970.875,620.639a11.368,11.368,0,0,1,5.313,1.454l.071-1.082a11.469,11.469,0,0,0-11.335,0l.071,1.082A11.45,11.45,0,0,1,970.875,620.639Z" transform="translate(-218.44 -199.856)" fill="#438689" opacity="0.85"/>
    <path id="Path_2559" data-name="Path 2559" d="M965.3,626.695l.855-.114a33.535,33.535,0,0,1,8.88,0l.855.114.373-5.684a11.469,11.469,0,0,0-11.335,0Q965.11,623.853,965.3,626.695Z" transform="translate(-218.44 -199.856)" fill="#acabac" opacity="0.75"/>
    <path id="Path_2560" data-name="Path 2560" d="M984.082,656.357l.829-.111q.424-.056.849-.1l8.139-6.03c-.271-.117-.574-.235-.909-.347l-8.934,6.578Z" transform="translate(-237.2 -229.522)" fill="#fff" opacity="0.1"/>
    <path id="Path_2561" data-name="Path 2561" d="M973.045,623.965l5.972-4.435-.226-.008q-.254-.006-.5,0l-5.281,3.9Z" transform="translate(-226.36 -199.862)" fill="#fff" opacity="0.1"/>
    <path id="Path_2562" data-name="Path 2562" d="M1163.795,693.954l4.307-3.154.184-2.184c-.082-.048-.176-.1-.281-.157l-7.221,5.483A19.757,19.757,0,0,1,1163.795,693.954Z" transform="translate(-410.476 -267.46)" fill="#fff" opacity="0.1"/>
    <path id="Path_2563" data-name="Path 2563" d="M1556.379,1021.733a.453.453,0,0,0,.44.346l-.214-8.853-.135-8.148a3.124,3.124,0,0,0-.113-.784l-.379-1.37a.231.231,0,0,0-.449.017l-.233,1.183a15.093,15.093,0,0,0-.284,2.913v6.376a22.478,22.478,0,0,0,.635,5.307Z" transform="translate(-797.028 -575.618)" fill="#acabac"/>
    <path id="Path_2564" data-name="Path 2564" d="M1600.447,1049.833v6.849a30.374,30.374,0,0,0,.537,5.7l.37,1.935-.2-8.192-.135-8.148a3.133,3.133,0,0,0-.113-.784l-.191-.688-.031.2A20.456,20.456,0,0,0,1600.447,1049.833Z" transform="translate(-841.58 -618.517)" fill="#fff" opacity="0.15"/>
    <path id="Path_2565" data-name="Path 2565" d="M1467.88,2435.911l-.06,1.324a.937.937,0,0,1-.218.559c-.3.352-.623.717-.984,1.086-.465.476-.925.9-1.364,1.267a.779.779,0,0,1-.783.132l-.293-.113Z" transform="translate(-707.961 -1980.868)"/>
    <path id="Path_2566" data-name="Path 2566" d="M1457.773,2431.844l-.06,1.324a.935.935,0,0,1-.217.559c-.3.352-.623.717-.984,1.086-.465.476-.925.9-1.364,1.267a.78.78,0,0,1-.783.132l-.293-.113Z" transform="translate(-698.051 -1976.88)" fill="#454545"/>
    <path id="Path_2567" data-name="Path 2567" d="M1506.561,2498.047l.024.637a.414.414,0,0,1-.1.279c-.152.184-.321.375-.51.571-.243.252-.485.477-.718.678a.512.512,0,0,1-.438.1l-.171-.039Z" transform="translate(-747.65 -2041.796)" fill="#fff" opacity="0.2"/>
    <path id="Path_2568" data-name="Path 2568" d="M1463.4,2428.194l-.067,1.477a.994.994,0,0,1-.23.591c-.314.374-.646.74-.986,1.089-.433.443-.894.871-1.368,1.271a.833.833,0,0,1-.836.141l-.364-.14Zm-3.189,4.518a.727.727,0,0,0,.469-.171c.472-.4.93-.823,1.361-1.264.339-.347.669-.711.981-1.083a.887.887,0,0,0,.205-.527l.053-1.172-3.552,4.083.222.085A.721.721,0,0,0,1460.215,2432.712Z" transform="translate(-703.425 -1973.301)" fill="#3d3d3d"/>
    <path id="Path_2569" data-name="Path 2569" d="M856.943,2435.911l.06,1.324a.937.937,0,0,0,.218.559c.3.352.622.717.984,1.086.465.476.925.9,1.364,1.267a.78.78,0,0,0,.783.132l.293-.113Z" transform="translate(-112.559 -1980.868)"/>
    <path id="Path_2570" data-name="Path 2570" d="M867.05,2431.844l.06,1.324a.935.935,0,0,0,.217.559c.3.352.622.717.984,1.086.465.476.925.9,1.364,1.267a.78.78,0,0,0,.783.132l.293-.113Z" transform="translate(-122.47 -1976.88)" fill="#454545"/>
    <path id="Path_2571" data-name="Path 2571" d="M907.33,2498.047l-.024.637a.413.413,0,0,0,.1.279c.152.184.321.375.51.571.243.252.485.477.718.678a.512.512,0,0,0,.438.1l.171-.039Z" transform="translate(-161.938 -2041.796)" fill="#fff" opacity="0.2"/>
    <path id="Path_2572" data-name="Path 2572" d="M857.706,2432.623l-.364.14a.832.832,0,0,1-.836-.141c-.474-.4-.935-.828-1.368-1.271-.341-.349-.673-.715-.986-1.089a.994.994,0,0,1-.23-.591l-.067-1.477Zm-.4.041.222-.085-3.552-4.083.053,1.172a.888.888,0,0,0,.205.527c.312.372.642.736.981,1.083.431.441.889.866,1.361,1.264a.726.726,0,0,0,.729.123Z" transform="translate(-109.53 -1973.301)" fill="#3d3d3d"/>
    <path id="Path_2573" data-name="Path 2573" d="M760.222,625.408Z" transform="translate(-17.719 -205.637)" fill="none" stroke="#606060" stroke-miterlimit="10" stroke-width="1"/>
    <path id="Path_2574" data-name="Path 2574" d="M893.469,1759.863a.381.381,0,0,0,.126.388,8.5,8.5,0,0,0,1.644,1.081l.086.043a8.638,8.638,0,0,0,3.791.863h2.3a8.638,8.638,0,0,0,3.791-.863l.086-.043a8.5,8.5,0,0,0,1.644-1.081.382.382,0,0,0,.126-.388l-.2-.791h.468l-1.215-4.874a.416.416,0,0,0-.534-.294,15.976,15.976,0,0,1-5.314.789h0a15.976,15.976,0,0,1-5.314-.789.416.416,0,0,0-.534.294l-1.215,4.874h.468Z" transform="translate(-148.115 -1312.122)" fill="none"/>
    <path id="Path_2575" data-name="Path 2575" d="M881.981,1760.336a9.076,9.076,0,0,0,1.759,1.188l.092.047a8.982,8.982,0,0,0,3.429.928c0-.1-.008-.193-.012-.289q.358.029.719.029h2.3q.36,0,.719-.029c0,.1-.008.193-.012.289a8.982,8.982,0,0,0,3.429-.928l.092-.047a9.075,9.075,0,0,0,1.758-1.188.426.426,0,0,0,.135-.426l-1.424-5.712a.416.416,0,0,0-.534-.294,15.975,15.975,0,0,1-5.313.789h0a15.975,15.975,0,0,1-5.313-.789.416.416,0,0,0-.534.294l-1.424,5.712A.426.426,0,0,0,881.981,1760.336Z" transform="translate(-136.965 -1312.121)" fill="none"/>
    <path id="Path_2576" data-name="Path 2576" d="M881.981,1760.336a9.076,9.076,0,0,0,1.759,1.188l.092.047a9.033,9.033,0,0,0,4.055.949h2.46a9.034,9.034,0,0,0,4.055-.949l.092-.047a9.075,9.075,0,0,0,1.758-1.188.426.426,0,0,0,.135-.426l-1.424-5.712a.416.416,0,0,0-.534-.294,15.975,15.975,0,0,1-5.313.789h0a15.975,15.975,0,0,1-5.313-.789.416.416,0,0,0-.534.294l-1.424,5.712A.426.426,0,0,0,881.981,1760.336Z" transform="translate(-136.965 -1312.121)" fill="none"/>
    <path id="Path_2577" data-name="Path 2577" d="M1049.712,2590.544c.078.078.172.169.243.23a.346.346,0,0,0,.175.079c.453.063.944.13,1.461.171.7.056,1.408.084,2.032.091h.167c.6-.007,1.166-.035,1.865-.091.517-.041,1.008-.109,1.461-.171a.347.347,0,0,0,.175-.079c.071-.061.165-.153.243-.23a.318.318,0,0,0,.075-.345,2.744,2.744,0,0,0-.284-.535,3.037,3.037,0,0,0-1.136-.982h-5.133a3.038,3.038,0,0,0-1.136.982,2.75,2.75,0,0,0-.284.535A.318.318,0,0,0,1049.712,2590.544Z" transform="translate(-301.472 -2130.669)" fill="#333"/>
    <path id="Path_2578" data-name="Path 2578" d="M1057.492,2592.836c.075.074.166.163.234.221a.326.326,0,0,0,.168.075c.436.061.909.126,1.406.166.674.054,1.354.081,1.955.087h.161c.578-.007,1.122-.033,1.795-.087.5-.039.969-.1,1.406-.166a.326.326,0,0,0,.168-.075c.068-.059.159-.147.234-.221a.307.307,0,0,0,.072-.332,2.653,2.653,0,0,0-.273-.514,2.924,2.924,0,0,0-1.093-.945h-4.939a2.922,2.922,0,0,0-1.093.945,2.646,2.646,0,0,0-.273.514A.307.307,0,0,0,1057.492,2592.836Z" transform="translate(-309.104 -2132.985)" fill="#3d3d3d"/>
    <path id="Path_2579" data-name="Path 2579" d="M1619.328,2022.772c0-.044,0-.09,0-.134a2.288,2.288,0,0,0-1.052-1.928l-.01-.007.052.208A2.288,2.288,0,0,1,1619.328,2022.772Z" transform="translate(-859.052 -1573.752)" fill="#de3743"/>
    <path id="Path_2580" data-name="Path 2580" d="M839.589,2020.911l.052-.208h0l-.01.007a2.288,2.288,0,0,0-1.052,1.928c0,.044,0,.089,0,.134A2.288,2.288,0,0,1,839.589,2020.911Z" transform="translate(-94.551 -1573.752)" fill="#de3743"/>
    <path id="Path_2581" data-name="Path 2581" d="M881.992,2073.971a9.069,9.069,0,0,0,1.759,1.188l.094.048a9.035,9.035,0,0,0,4.054.948h2.465a9.024,9.024,0,0,0,4.059-.953l.083-.042a9.06,9.06,0,0,0,1.758-1.188.426.426,0,0,0,.139-.409.424.424,0,0,1-.139.236,9.082,9.082,0,0,1-1.758,1.188l-.083.042a9.021,9.021,0,0,1-4.059.953H887.9a9.035,9.035,0,0,1-4.054-.948l-.094-.048a9.091,9.091,0,0,1-1.759-1.188.425.425,0,0,1-.139-.236A.426.426,0,0,0,881.992,2073.971Z" transform="translate(-136.977 -1625.581)" fill="#de3743"/>
    <g id="Group_55663" data-name="Group 55663" transform="translate(748.294 458.06)">
      <g id="Group_55662" data-name="Group 55662" transform="translate(0 0)" clip-path="url(#clip-path)">
        <g id="Group_55661" data-name="Group 55661" transform="translate(0.262 1.35)">
          <rect id="Rectangle_8955" data-name="Rectangle 8955" width="0.156" height="1.84" transform="translate(7.186 1.84) rotate(180)" fill="#454545"/>
          <rect id="Rectangle_8956" data-name="Rectangle 8956" width="0.039" height="1.84" transform="translate(7.069 1.84) rotate(180)" fill="#525252"/>
          <rect id="Rectangle_8957" data-name="Rectangle 8957" width="0.156" height="1.84" transform="translate(6.773 1.84) rotate(180)" fill="#454545"/>
          <rect id="Rectangle_8958" data-name="Rectangle 8958" width="0.039" height="1.84" transform="translate(6.656 1.84) rotate(180)" fill="#525252"/>
          <rect id="Rectangle_8959" data-name="Rectangle 8959" width="0.156" height="1.84" transform="translate(6.359 1.84) rotate(180)" fill="#454545"/>
          <rect id="Rectangle_8960" data-name="Rectangle 8960" width="0.039" height="1.84" transform="translate(6.242 1.84) rotate(180)" fill="#525252"/>
          <rect id="Rectangle_8961" data-name="Rectangle 8961" width="0.156" height="1.84" transform="translate(5.945 1.84) rotate(180)" fill="#454545"/>
          <rect id="Rectangle_8962" data-name="Rectangle 8962" width="0.039" height="1.84" transform="translate(5.829 1.84) rotate(180)" fill="#525252"/>
          <rect id="Rectangle_8963" data-name="Rectangle 8963" width="0.156" height="1.84" transform="translate(5.532 1.84) rotate(180)" fill="#454545"/>
          <rect id="Rectangle_8964" data-name="Rectangle 8964" width="0.039" height="1.84" transform="translate(5.415 1.84) rotate(180)" fill="#525252"/>
          <rect id="Rectangle_8965" data-name="Rectangle 8965" width="0.156" height="1.84" transform="translate(5.118 1.84) rotate(180)" fill="#454545"/>
          <rect id="Rectangle_8966" data-name="Rectangle 8966" width="0.039" height="1.84" transform="translate(5.002 1.84) rotate(180)" fill="#525252"/>
          <rect id="Rectangle_8967" data-name="Rectangle 8967" width="0.156" height="1.84" transform="translate(4.705 1.84) rotate(180)" fill="#454545"/>
          <rect id="Rectangle_8968" data-name="Rectangle 8968" width="0.039" height="1.84" transform="translate(4.588 1.84) rotate(180)" fill="#525252"/>
          <rect id="Rectangle_8969" data-name="Rectangle 8969" width="0.156" height="1.84" transform="translate(4.291 1.84) rotate(180)" fill="#454545"/>
          <rect id="Rectangle_8970" data-name="Rectangle 8970" width="0.039" height="1.84" transform="translate(4.174 1.84) rotate(180)" fill="#525252"/>
          <rect id="Rectangle_8971" data-name="Rectangle 8971" width="0.156" height="1.84" transform="translate(3.878 1.84) rotate(180)" fill="#454545"/>
          <rect id="Rectangle_8972" data-name="Rectangle 8972" width="0.039" height="1.84" transform="translate(3.761 1.84) rotate(180)" fill="#525252"/>
          <rect id="Rectangle_8973" data-name="Rectangle 8973" width="0.156" height="1.84" transform="translate(3.464 1.84) rotate(180)" fill="#454545"/>
          <rect id="Rectangle_8974" data-name="Rectangle 8974" width="0.039" height="1.84" transform="translate(3.347 1.84) rotate(180)" fill="#525252"/>
          <rect id="Rectangle_8975" data-name="Rectangle 8975" width="0.156" height="1.84" transform="translate(3.051 1.84) rotate(180)" fill="#454545"/>
          <rect id="Rectangle_8976" data-name="Rectangle 8976" width="0.039" height="1.84" transform="translate(2.934 1.84) rotate(180)" fill="#525252"/>
          <rect id="Rectangle_8977" data-name="Rectangle 8977" width="0.156" height="1.84" transform="translate(2.637 1.84) rotate(180)" fill="#454545"/>
          <rect id="Rectangle_8978" data-name="Rectangle 8978" width="0.039" height="1.84" transform="translate(2.52 1.84) rotate(180)" fill="#525252"/>
          <rect id="Rectangle_8979" data-name="Rectangle 8979" width="0.156" height="1.84" transform="translate(2.223 1.84) rotate(180)" fill="#454545"/>
          <rect id="Rectangle_8980" data-name="Rectangle 8980" width="0.039" height="1.84" transform="translate(2.107 1.84) rotate(180)" fill="#525252"/>
          <rect id="Rectangle_8981" data-name="Rectangle 8981" width="0.156" height="1.84" transform="translate(1.81 1.84) rotate(180)" fill="#454545"/>
          <rect id="Rectangle_8982" data-name="Rectangle 8982" width="0.039" height="1.84" transform="translate(1.693 1.84) rotate(180)" fill="#525252"/>
          <rect id="Rectangle_8983" data-name="Rectangle 8983" width="0.156" height="1.84" transform="translate(1.396 1.84) rotate(180)" fill="#454545"/>
          <rect id="Rectangle_8984" data-name="Rectangle 8984" width="0.039" height="1.84" transform="translate(1.28 1.84) rotate(180)" fill="#525252"/>
          <rect id="Rectangle_8985" data-name="Rectangle 8985" width="0.156" height="1.84" transform="translate(0.983 1.84) rotate(180)" fill="#454545"/>
          <rect id="Rectangle_8986" data-name="Rectangle 8986" width="0.039" height="1.84" transform="translate(0.866 1.84) rotate(180)" fill="#525252"/>
          <rect id="Rectangle_8987" data-name="Rectangle 8987" width="0.156" height="1.84" transform="translate(0.569 1.84) rotate(180)" fill="#454545"/>
          <rect id="Rectangle_8988" data-name="Rectangle 8988" width="0.039" height="1.84" transform="translate(0.452 1.84) rotate(180)" fill="#525252"/>
          <rect id="Rectangle_8989" data-name="Rectangle 8989" width="0.156" height="1.84" transform="translate(0.156 1.84) rotate(180)" fill="#454545"/>
          <rect id="Rectangle_8990" data-name="Rectangle 8990" width="0.039" height="1.84" transform="translate(0.039 1.84) rotate(180)" fill="#525252"/>
        </g>
      </g>
    </g>
    <path id="Path_2583" data-name="Path 2583" d="M1054.042,2653.85l2.726.606a1.732,1.732,0,0,0,.375.041h1.489a1.733,1.733,0,0,0,.375-.041l2.726-.606c.042-.009.052-.127.028-.181l-.028.007-2.726.606a1.748,1.748,0,0,1-.375.041h-1.489a1.747,1.747,0,0,1-.375-.041l-2.726-.606c-.026-.006-.051-.013-.077-.02C1053.955,2653.71,1054,2653.84,1054.042,2653.85Z" transform="translate(-305.736 -2194.379)" fill="#bfbfbf"/>
    <path id="Path_2584" data-name="Path 2584" d="M838.859,2028.709a1.407,1.407,0,0,0,.272.711,21.212,21.212,0,0,0,3.253,3.483,1.079,1.079,0,0,0,.468.234l2.73.606a1.752,1.752,0,0,0,.376.041h1.491a1.752,1.752,0,0,0,.376-.041l2.73-.606a1.078,1.078,0,0,0,.468-.234,21.212,21.212,0,0,0,3.253-3.483,1.406,1.406,0,0,0,.271-.711q.108-1.181.178-2.43c.069-1.258.1-2.474.1-3.641a2.287,2.287,0,0,0-1.053-1.928l-.01-.007.209.838a.426.426,0,0,1-.135.426,9.078,9.078,0,0,1-1.758,1.188l-.083.042a9.022,9.022,0,0,1-4.058.953h-2.464a9.033,9.033,0,0,1-4.053-.948l-.094-.048a9.074,9.074,0,0,1-1.758-1.188.426.426,0,0,1-.135-.426l.209-.838h0l-.01.007a2.287,2.287,0,0,0-1.053,1.928c0,1.168.033,2.383.1,3.641Q838.75,2027.528,838.859,2028.709Z" transform="translate(-94.552 -1573.735)"/>
    <path id="Path_2585" data-name="Path 2585" d="M1160.792,2196.9h.253q-.313,0-.626-.021s0,.009,0,.013C1160.543,2196.893,1160.668,2196.9,1160.792,2196.9Z" transform="translate(-410.123 -1746.495)" fill="#cc333d"/>
    <path id="Path_2586" data-name="Path 2586" d="M1214.57,2693.3h0Z" transform="translate(-463.211 -2233.25)" fill="none"/>
    <path id="Path_2587" data-name="Path 2587" d="M1296.462,2693.3h0Z" transform="translate(-543.509 -2233.25)" fill="none"/>
    <path id="Path_2588" data-name="Path 2588" d="M1215.023,2693.317h0Z" transform="translate(-463.657 -2233.268)" fill="#de3743"/>
    <path id="Path_2589" data-name="Path 2589" d="M1296.071,2693.317h0Z" transform="translate(-543.134 -2233.268)" fill="#de3743"/>
    <path id="Path_2590" data-name="Path 2590" d="M892.672,2020.7h0l-.01.007.007.006Z" transform="translate(-147.583 -1573.754)" fill="#de3743"/>
    <path id="Path_2591" data-name="Path 2591" d="M1396.369,2608.216a.62.62,0,0,0,.493-.575l.028-.533c-.3.288-.594.553-.88.8a1.08,1.08,0,0,1-.468.233l-1.149.255h.7A7.408,7.408,0,0,0,1396.369,2608.216Z" transform="translate(-639.541 -2148.736)" fill="none"/>
    <path id="Path_2592" data-name="Path 2592" d="M989.242,2608.219a7.619,7.619,0,0,0,1.268.176h.7l-1.149-.255a1.079,1.079,0,0,1-.468-.233c-.285-.244-.579-.509-.88-.8l.028.535A.62.62,0,0,0,989.242,2608.219Z" transform="translate(-241.765 -2148.736)" fill="none"/>
    <g id="Group_55666" data-name="Group 55666" transform="translate(747.167 449.551)">
      <g id="Group_55664" data-name="Group 55664" transform="translate(0 0)">
        <path id="Path_2593" data-name="Path 2593" d="M999.671,2154.275l.123.088.012.005,1.481.425.029-.11-1.635-.427A.011.011,0,0,0,999.671,2154.275Z" transform="translate(-999.666 -2154.255)" fill="#595959"/>
      </g>
      <g id="Group_55665" data-name="Group 55665" transform="translate(1.242 0.364)">
        <path id="Path_2594" data-name="Path 2594" d="M1066.631,2173.221l-3.119-.256h0a.152.152,0,0,0,.139.164l2.815.231a.152.152,0,0,0,.164-.139Z" transform="translate(-1063.511 -2172.965)" fill="#595959"/>
      </g>
    </g>
    <g id="Group_55669" data-name="Group 55669" transform="translate(752.817 449.389)">
      <g id="Group_55667" data-name="Group 55667" transform="translate(0 0.718)">
        <path id="Path_2595" data-name="Path 2595" d="M1289.729,2182.978l.145.042.013,0,1.538-.09-.009-.114-1.684.139A.011.011,0,0,0,1289.729,2182.978Z" transform="translate(-1289.721 -2182.817)" fill="#595959"/>
      </g>
      <g id="Group_55668" data-name="Group 55668" transform="translate(1.289 0)">
        <path id="Path_2596" data-name="Path 2596" d="M1359.05,2145.913l-3.027.792h0a.152.152,0,0,0,.186.109l2.733-.715a.152.152,0,0,0,.109-.186Z" transform="translate(-1356.023 -2145.913)" fill="#595959"/>
      </g>
    </g>
    <path id="Path_2597" data-name="Path 2597" d="M881.981,1760.336a9.076,9.076,0,0,0,1.759,1.188l.092.047a9.033,9.033,0,0,0,4.055.949h2.46a9.034,9.034,0,0,0,4.055-.949l.092-.047a9.075,9.075,0,0,0,1.758-1.188.426.426,0,0,0,.135-.426l-1.424-5.712a.416.416,0,0,0-.534-.294,15.975,15.975,0,0,1-5.313.789h0a15.975,15.975,0,0,1-5.313-.789.416.416,0,0,0-.534.294l-1.424,5.712A.426.426,0,0,0,881.981,1760.336Z" transform="translate(-136.965 -1312.121)" fill="none"/>
    <rect id="Rectangle_8991" data-name="Rectangle 8991" width="1.42" height="0.225" transform="matrix(-0.996, -0.084, 0.084, -0.996, 759.454, 429.969)" fill="#545454"/>
    <path id="Path_2598" data-name="Path 2598" d="M1558.293,1461.292v1.741a22.434,22.434,0,0,0,.634,5.292l.732,3.012a.388.388,0,0,0,.313.292l-.213-8.782-.018-1.095c-.027-.011-.054-.021-.082-.03Z" transform="translate(-800.246 -1025.228)" fill="none"/>
    <path id="Path_2599" data-name="Path 2599" d="M1559.738,1015.213l-.115-6.916a3.07,3.07,0,0,0-.111-.768l-.379-1.37a.167.167,0,0,0-.325.012l-.233,1.183a15.082,15.082,0,0,0-.282,2.9v4.5l1.4.443Z" transform="translate(-800.246 -578.844)" fill="none"/>
    <path id="Path_2600" data-name="Path 2600" d="M1639.247,1480.793l1.021.653v-.154l-.953-.606a1.171,1.171,0,0,0-.118-.066l0,.146Z" transform="translate(-879.577 -1044.188)" fill="#545454"/>
    <path id="Path_2601" data-name="Path 2601" d="M881.981,1760.336a9.076,9.076,0,0,0,1.759,1.188l.092.047a9.033,9.033,0,0,0,4.055.949h2.46a9.034,9.034,0,0,0,4.055-.949l.092-.047a9.075,9.075,0,0,0,1.758-1.188.426.426,0,0,0,.135-.426l-1.424-5.712a.416.416,0,0,0-.534-.294,15.975,15.975,0,0,1-5.313.789h0a15.975,15.975,0,0,1-5.313-.789.416.416,0,0,0-.534.294l-1.424,5.712A.426.426,0,0,0,881.981,1760.336Z" transform="translate(-136.965 -1312.121)" fill="none"/>
    <path id="Path_2602" data-name="Path 2602" d="M1555.784,1002.759a.228.228,0,0,0-.256.185l-.233,1.183a15.1,15.1,0,0,0-.284,2.913v6.376a22.477,22.477,0,0,0,.635,5.307l.732,3.012a.453.453,0,0,0,.44.346l-.214-8.853-.135-8.148a3.124,3.124,0,0,0-.113-.784l-.379-1.37a.225.225,0,0,0-.1-.136l-.069.028Z" transform="translate(-797.028 -575.62)" fill="none"/>
    <path id="Path_2603" data-name="Path 2603" d="M1594.725,1002.9l.069-.028a.235.235,0,0,0-.093-.032Z" transform="translate(-835.946 -575.717)" fill="#ba2f38"/>
    <g id="Group_55671" data-name="Group 55671" transform="translate(759.978 437.462)">
      <g id="Group_55670" data-name="Group 55670" transform="translate(0 0.396)">
        <path id="Path_2604" data-name="Path 2604" d="M1657.9,1554.3v.584a.407.407,0,0,1-.124.292l-.187.182h0a.164.164,0,0,1,0-.231l.069-.068a.244.244,0,0,0,.074-.175v-.584a.242.242,0,0,0-.072-.173l-.1-.26.038-.037.182.182A.407.407,0,0,1,1657.9,1554.3Z" transform="translate(-1657.548 -1553.827)" fill="#545454"/>
      </g>
      <path id="Path_2605" data-name="Path 2605" d="M1657.643,1534.362H1658v-.135a.846.846,0,0,0-.164-.5l-.191-.26Z" transform="translate(-1657.641 -1533.467)" fill="#545454"/>
    </g>
    <g id="Group_55673" data-name="Group 55673" transform="translate(759.978 428.189)">
      <g id="Group_55672" data-name="Group 55672" transform="translate(0 0.396)">
        <path id="Path_2606" data-name="Path 2606" d="M1657.9,1078.174v.584a.407.407,0,0,1-.124.293l-.187.181h0a.163.163,0,0,1,0-.231l.069-.068a.245.245,0,0,0,.074-.176v-.584a.243.243,0,0,0-.072-.173l-.1-.26.038-.038.182.182A.407.407,0,0,1,1657.9,1078.174Z" transform="translate(-1657.548 -1077.704)" fill="#545454"/>
      </g>
      <path id="Path_2607" data-name="Path 2607" d="M1657.643,1058.239H1658v-.134a.846.846,0,0,0-.164-.5l-.191-.26Z" transform="translate(-1657.641 -1057.344)" fill="#545454"/>
    </g>
    <path id="Path_2608" data-name="Path 2608" d="M1556.6,1419.431a3.428,3.428,0,0,0-.709-.9,2.665,2.665,0,0,0-.884-.528v-1.31l1.593.368Z" transform="translate(-797.028 -981.508)" fill="#545454"/>
    <path id="Path_2609" data-name="Path 2609" d="M1551.858,1452.445l1.365.43c.028.009.055.019.082.03a1.066,1.066,0,0,1,.129.062l0-.146a1.2,1.2,0,0,0-.129-.054l-.041-.014-1.4-.443-.128-.04v.135Z" transform="translate(-793.81 -1016.389)" fill="#4f4f4f"/>
    <path id="Path_2610" data-name="Path 2610" d="M868.571,1461.292v1.741a22.437,22.437,0,0,1-.634,5.292l-.732,3.012a.388.388,0,0,1-.313.292l.213-8.782.018-1.095c.027-.011.054-.021.082-.03Z" transform="translate(-122.315 -1025.228)" fill="none"/>
    <path id="Path_2611" data-name="Path 2611" d="M878.881,1015.213,879,1008.3a3.07,3.07,0,0,1,.111-.768l.379-1.37a.167.167,0,0,1,.325.012l.233,1.183a15.077,15.077,0,0,1,.282,2.9v4.5l-1.4.443Z" transform="translate(-134.07 -578.844)" fill="none"/>
    <path id="Path_2612" data-name="Path 2612" d="M818.248,1480.793l-1.021.653v-.154l.953-.606a1.178,1.178,0,0,1,.118-.066l0,.146Z" transform="translate(-73.615 -1044.188)" fill="#545454"/>
    <path id="Path_2613" data-name="Path 2613" d="M864.559,1002.759a.228.228,0,0,1,.256.185l.232,1.183a15.105,15.105,0,0,1,.284,2.913v6.376a22.48,22.48,0,0,1-.635,5.307l-.732,3.012a.453.453,0,0,1-.44.346l.214-8.853.135-8.148a3.132,3.132,0,0,1,.113-.784l.379-1.37a.225.225,0,0,1,.1-.136l.069.028Z" transform="translate(-119.012 -575.62)" fill="none"/>
    <path id="Path_2614" data-name="Path 2614" d="M912.068,1002.9l-.069-.028a.234.234,0,0,1,.093-.032Z" transform="translate(-166.544 -575.717)" fill="#ba2f38"/>
    <g id="Group_55675" data-name="Group 55675" transform="translate(743.968 437.462)">
      <g id="Group_55674" data-name="Group 55674" transform="translate(0 0.396)">
        <path id="Path_2615" data-name="Path 2615" d="M835.577,1554.3v.584a.407.407,0,0,0,.124.292l.187.182h0a.163.163,0,0,0,0-.231l-.07-.068a.244.244,0,0,1-.074-.175v-.584a.242.242,0,0,1,.072-.173l.1-.26-.038-.037-.182.182A.408.408,0,0,0,835.577,1554.3Z" transform="translate(-835.577 -1553.827)" fill="#545454"/>
      </g>
      <path id="Path_2616" data-name="Path 2616" d="M835.932,1534.362h-.355v-.135a.847.847,0,0,1,.164-.5l.191-.26Z" transform="translate(-835.577 -1533.467)" fill="#545454"/>
    </g>
    <g id="Group_55677" data-name="Group 55677" transform="translate(743.968 428.189)">
      <g id="Group_55676" data-name="Group 55676" transform="translate(0 0.396)">
        <path id="Path_2617" data-name="Path 2617" d="M835.577,1078.174v.584a.408.408,0,0,0,.124.293l.187.181h0a.163.163,0,0,0,0-.231l-.07-.068a.245.245,0,0,1-.074-.176v-.584a.242.242,0,0,1,.072-.173l.1-.26-.038-.038-.182.182A.408.408,0,0,0,835.577,1078.174Z" transform="translate(-835.577 -1077.704)" fill="#545454"/>
      </g>
      <path id="Path_2618" data-name="Path 2618" d="M835.932,1058.239h-.355v-.134a.846.846,0,0,1,.164-.5l.191-.26Z" transform="translate(-835.577 -1057.344)" fill="#545454"/>
    </g>
    <path id="Path_2619" data-name="Path 2619" d="M1497.152,2129.461l-.03.65h0Z" transform="translate(-740.27 -1680.393)" fill="none"/>
    <path id="Path_2620" data-name="Path 2620" d="M1010.712,2125.912l.033.7h0Z" transform="translate(-263.332 -1676.913)" fill="none"/>
    <path id="Path_2621" data-name="Path 2621" d="M1012.4,2162.059l.439,9.421h0l-.439-9.421Z" transform="translate(-264.983 -1712.342)" fill="#d93641"/>
    <path id="Path_2622" data-name="Path 2622" d="M1474.593,2172.289l.438-9.4h0l-.438,9.4Z" transform="translate(-718.18 -1713.153)" fill="#d93641"/>
    <path id="Path_2623" data-name="Path 2623" d="M957.068,2142.169a.776.776,0,0,0-.117.43l.1,4.637a2.982,2.982,0,0,0,.416,1.469,2.961,2.961,0,0,1,.4,1.213l.025.243q.283.26.557.494l.022.018,0-.049h0l-.439-9.421q-.274-.115-.542-.249l-.094-.048c-.074-.038-.146-.077-.217-.116l.009.966A.776.776,0,0,1,957.068,2142.169Z" transform="translate(-210.617 -1691.487)" fill="#333"/>
    <path id="Path_2624" data-name="Path 2624" d="M1475.433,2141.985q-.291.146-.591.271l-.438,9.4h0l0,.08c.021-.016.041-.031.061-.048q.253-.217.516-.457l.029-.281a2.956,2.956,0,0,1,.4-1.213,2.981,2.981,0,0,0,.416-1.469l.1-4.637a.776.776,0,0,0-.117-.43.775.775,0,0,1-.117-.414l.009-.945c-.059.032-.119.064-.18.1Z" transform="translate(-717.99 -1692.523)" fill="#333"/>
    <path id="Path_2625" data-name="Path 2625" d="M1012.836,2171.48c0,.017,0,.034,0,.05a1.078,1.078,0,0,0,.443.214l1.966.437.76.169a1.717,1.717,0,0,0,.375.042h1.489a1.719,1.719,0,0,0,.375-.042l.76-.169,1.966-.437a1.08,1.08,0,0,0,.4-.181.7.7,0,0,0,.01-.085l.438-9.4a9.033,9.033,0,0,1-3.461.683H1015.9a9.061,9.061,0,0,1-3.506-.7Z" transform="translate(-264.978 -1712.342)"/>
    <path id="Path_2626" data-name="Path 2626" d="M1034.968,2646.481l0,.049,0,0C1034.97,2646.515,1034.969,2646.5,1034.968,2646.481Z" transform="translate(-287.115 -2187.343)" fill="#d93641"/>
    <path id="Path_2627" data-name="Path 2627" d="M1474.092,2646.474l0-.081a.694.694,0,0,1-.01.085Z" transform="translate(-717.683 -2187.256)" fill="#d93641"/>
    <path id="Path_2628" data-name="Path 2628" d="M1528.732,534.46c-.108-3.057-.11-5.394-.218-8.451-.047-.564-.265-2.424-1.552-3.08a2.023,2.023,0,0,0-.3-.125l.473.51-.458,8.537.961,1.009c.043-.359-.027-.666.211-.711a.818.818,0,0,1,.294.053C1528.359,532.965,1528.513,533.7,1528.732,534.46Z" transform="translate(-769.227 -105.028)" fill="#333"/>
    <path id="Path_2629" data-name="Path 2629" d="M835.4,2022.822c.045.808.1,1.626.178,2.432a1.471,1.471,0,0,0,.284.743,21.331,21.331,0,0,0,3.263,3.494,1.15,1.15,0,0,0,.5.248l2.73.606a1.789,1.789,0,0,0,.39.043h1.491a1.788,1.788,0,0,0,.39-.043l2.73-.606a1.149,1.149,0,0,0,.5-.248,21.317,21.317,0,0,0,3.263-3.494,1.472,1.472,0,0,0,.284-.743c.074-.806.134-1.625.178-2.432.067-1.208.1-2.434.1-3.645a2.341,2.341,0,0,0-1.083-1.982l-.068-.043.045.181a.514.514,0,0,1,.114.083,2.212,2.212,0,0,1,.863,1.761c0,1.208-.036,2.432-.1,3.638-.044.806-.1,1.623-.178,2.427a1.341,1.341,0,0,1-.259.678,21.131,21.131,0,0,1-3.243,3.473,1.016,1.016,0,0,1-.441.22l-2.73.606a1.672,1.672,0,0,1-.362.04H842.74a1.672,1.672,0,0,1-.362-.04l-2.73-.606a1.017,1.017,0,0,1-.441-.22,21.134,21.134,0,0,1-3.243-3.473,1.342,1.342,0,0,1-.259-.678c-.074-.8-.133-1.622-.178-2.427-.066-1.206-.1-2.43-.1-3.638a2.213,2.213,0,0,1,.882-1.776l.032-.022c.017-.011.043-.028.061-.037l.047-.19-.068.043a2.341,2.341,0,0,0-1.083,1.982C835.3,2020.388,835.333,2021.614,835.4,2022.822Z" transform="translate(-91.334 -1570.253)" fill="#333"/>
    <path id="Path_2630" data-name="Path 2630" d="M1324.517,2197.968l-.419,6.759h0c-.049-1.385-.042-2.773.02-4.156l.115-2.574Z" transform="translate(-570.583 -1747.553)" fill="#333"/>
    <path id="Path_2631" data-name="Path 2631" d="M1164.187,2197.968l.419,6.759h0c.048-1.385.042-2.773-.02-4.156l-.115-2.574Z" transform="translate(-413.818 -1747.553)" fill="#333"/>
    <path id="Path_2632" data-name="Path 2632" d="M819.79,426.585l.008-1.893a17.594,17.594,0,0,1,.261-2.382c.094-.528.208-1.02.33-1.475a5.228,5.228,0,0,1,1.333-2.331l.071-.07.063-.06a1.862,1.862,0,0,1,.921-.367,4.585,4.585,0,0,0,1.852-.908h0a28.75,28.75,0,0,1,3.653-.274,24.254,24.254,0,0,1,3.406.236h0a5.876,5.876,0,0,0,2.2,1.028,1.514,1.514,0,0,1,.821.285l.062.059.06.059a5.228,5.228,0,0,1,1.342,2.337c.123.456.236.95.331,1.48a17.614,17.614,0,0,1,.261,2.382l.01,2.321h0l-.015-3.456a17.613,17.613,0,0,0-.261-2.382c-.095-.53-.208-1.024-.331-1.48a5.228,5.228,0,0,0-1.342-2.337l-.06-.059-.062-.059a4.29,4.29,0,0,0-.405-.33,5.217,5.217,0,0,0-2.615-.983h0a24.249,24.249,0,0,0-3.406-.236,28.762,28.762,0,0,0-3.653.274h0a5.193,5.193,0,0,0-2.53,1.067c-.091.072-.173.142-.243.207l-.063.06-.071.07a5.228,5.228,0,0,0-1.333,2.331c-.122.454-.235.947-.33,1.475a17.592,17.592,0,0,0-.261,2.382Q819.794,425.071,819.79,426.585Z" transform="translate(-76.129 0)"/>
    <path id="Path_2633" data-name="Path 2633" d="M1541.948,526.028a3.2,3.2,0,0,1,1.857,2.344l-.3.8a5.769,5.769,0,0,0-1.558-3.143Z" transform="translate(-784.218 -108.189)" fill="#8c2a32"/>
    <path id="Path_2634" data-name="Path 2634" d="M1556.917,535.467l-.451-.271a2.832,2.832,0,0,1,.962,1.063.047.047,0,0,0,.073.014l.078-.068a3.171,3.171,0,0,0-.663-.738Z" transform="translate(-798.458 -117.179)" fill="#bfbfbf"/>
    <path id="Path_2635" data-name="Path 2635" d="M1543.032,527.6a5.771,5.771,0,0,1,.447,1.409h0q.015.082.026.157l.3-.8c-.01-.054-.024-.119-.042-.193l.01.051-.15.4a.057.057,0,0,1-.109-.007,5.765,5.765,0,0,0-1.228-2.422,3.22,3.22,0,0,0-.338-.174A5.782,5.782,0,0,1,1543.032,527.6Z" transform="translate(-784.218 -108.189)" fill="#7a242c"/>
    <path id="Path_2636" data-name="Path 2636" d="M1540.3,524.431a.032.032,0,0,1,.036-.051h0a3.071,3.071,0,0,1,1.214.929,3.673,3.673,0,0,1,.55,1.07l.057.19a.576.576,0,0,1-.012.37l-.234.624a.032.032,0,0,1-.061-.006,5.737,5.737,0,0,0-1.549-3.125Zm1.791,2.469a.545.545,0,0,0,.018-.323,3.162,3.162,0,0,0-1.6-2.039.011.011,0,0,0-.013.017,5.793,5.793,0,0,1,1.373,2.771.029.029,0,0,0,.056,0Z" transform="translate(-782.597 -106.57)" fill="#545454"/>
    <path id="Path_2637" data-name="Path 2637" d="M882.035,534.46c.109-3.057.109-5.394.218-8.451.047-.564.265-2.424,1.552-3.08a2.026,2.026,0,0,1,.3-.125l-.58.785.565,8.261-.961,1.009a1.079,1.079,0,0,1-.167-.535c0-.06,0-.137-.044-.176-.067-.052-.2,0-.295.053C882.409,532.965,882.254,533.7,882.035,534.46Z" transform="translate(-137.163 -105.028)" fill="#333"/>
    <path id="Path_2638" data-name="Path 2638" d="M881.981,1760.336a9.076,9.076,0,0,0,1.759,1.188l.092.047a9.033,9.033,0,0,0,4.055.949h2.46a9.034,9.034,0,0,0,4.055-.949l.092-.047a9.075,9.075,0,0,0,1.758-1.188.426.426,0,0,0,.135-.426l-1.424-5.712a.416.416,0,0,0-.534-.294,15.975,15.975,0,0,1-5.313.789h0a15.975,15.975,0,0,1-5.313-.789.416.416,0,0,0-.534.294l-1.424,5.712A.426.426,0,0,0,881.981,1760.336Z" transform="translate(-136.965 -1312.121)" fill="none"/>
    <path id="Path_2639" data-name="Path 2639" d="M1556.379,1021.733a.453.453,0,0,0,.44.346l-.214-8.853-.135-8.148a3.124,3.124,0,0,0-.113-.784l-.379-1.37a.231.231,0,0,0-.449.017l-.233,1.183a15.093,15.093,0,0,0-.284,2.913v6.376a22.478,22.478,0,0,0,.635,5.307Z" transform="translate(-797.028 -575.618)" fill="none"/>
    <path id="Path_2640" data-name="Path 2640" d="M966.152,647.876a29.971,29.971,0,0,1,8.88,0l.855.128.373-5.719a11.319,11.319,0,0,0-2.137-.923,12.07,12.07,0,0,0-3.247-.521,12.686,12.686,0,0,0-5.951,1.443c.124,2.122.249,3.6.373,5.719Z" transform="translate(-218.44 -220.768)" fill="none"/>
    <path id="Path_2641" data-name="Path 2641" d="M881.981,1781.6a9.081,9.081,0,0,0,1.759,1.188l.092.047a9.033,9.033,0,0,0,4.055.949h2.46a9.033,9.033,0,0,0,4.055-.949l.092-.047a9.081,9.081,0,0,0,1.758-1.188.426.426,0,0,0,.135-.426l-1.424-5.712a.416.416,0,0,0-.534-.294,15.974,15.974,0,0,1-5.313.789h0a15.974,15.974,0,0,1-5.313-.789.416.416,0,0,0-.534.294l-1.424,5.712A.426.426,0,0,0,881.981,1781.6Z" transform="translate(-136.965 -1332.972)" fill="none"/>
    <path id="Path_2642" data-name="Path 2642" d="M1556.379,1043a.453.453,0,0,0,.44.346l-.214-8.853-.135-8.147a3.124,3.124,0,0,0-.113-.784l-.379-1.37a.231.231,0,0,0-.449.017l-.233,1.183a15.093,15.093,0,0,0-.284,2.913v6.376a22.48,22.48,0,0,0,.635,5.307Z" transform="translate(-797.028 -596.468)" fill="none"/>
    <path id="Path_2643" data-name="Path 2643" d="M994.677,433.881v-1.166a.732.732,0,0,0-.458-.678,13.907,13.907,0,0,0-4.555-.835,12.576,12.576,0,0,0-5.162.816.729.729,0,0,0-.447.673v1.19Z" transform="translate(-237.2 -15.199)" fill="#333"/>
    <path id="Path_2644" data-name="Path 2644" d="M956.491,452.4l.063-.038a10.935,10.935,0,0,1,2.169-1.01,11.067,11.067,0,0,1,3.57-.592q.142,0,.284,0a11.014,11.014,0,0,1,5.45,1.6l.063.038.033-2.628a.658.658,0,0,0-.223-.517,8.466,8.466,0,0,0-2-1.176,14.51,14.51,0,0,0-7.213,0,8.466,8.466,0,0,0-2,1.176.659.659,0,0,0-.224.517Z" transform="translate(-210.139 -31.305)"/>
    <path id="Path_2645" data-name="Path 2645" d="M966.735,448.513a8.712,8.712,0,0,1,2.037,1.291.687.687,0,0,0-.21-.408,8.346,8.346,0,0,0-2-1.281,13.368,13.368,0,0,0-7.213,0,8.343,8.343,0,0,0-2,1.281.687.687,0,0,0-.21.408,8.713,8.713,0,0,1,2.037-1.291A14.016,14.016,0,0,1,966.735,448.513Z" transform="translate(-210.801 -31.305)"/>
    <g id="Group_55678" data-name="Group 55678" transform="translate(746.333 416.275)">
      <path id="Path_2646" data-name="Path 2646" d="M956.6,450.526l.155-.095c.01-.006-.063-2.618-.063-2.618a.587.587,0,0,1,.2-.458,8.281,8.281,0,0,1,1.961-1.155,14.251,14.251,0,0,1,7.072,0,8.281,8.281,0,0,1,1.961,1.155.586.586,0,0,1,.2.457s-.075,2.612-.063,2.619l.155.095.034-2.713a.714.714,0,0,0-.246-.565,8.406,8.406,0,0,0-1.99-1.172,14.355,14.355,0,0,0-7.164,0,8.4,8.4,0,0,0-1.99,1.172.715.715,0,0,0-.246.566Z" transform="translate(-956.568 -445.622)" fill="#333"/>
    </g>
    <path id="Path_2647" data-name="Path 2647" d="M1556.379,1021.733a.453.453,0,0,0,.44.346l-.214-8.853-.135-8.148a3.124,3.124,0,0,0-.113-.784l-.379-1.37a.231.231,0,0,0-.449.017l-.233,1.183a15.093,15.093,0,0,0-.284,2.913v6.376a22.478,22.478,0,0,0,.635,5.307Z" transform="translate(-797.028 -575.618)" fill="none"/>
    <path id="Path_2648" data-name="Path 2648" d="M881.981,1760.336a9.076,9.076,0,0,0,1.759,1.188l.092.047a9.033,9.033,0,0,0,4.055.949h2.46a9.034,9.034,0,0,0,4.055-.949l.092-.047a9.075,9.075,0,0,0,1.758-1.188.426.426,0,0,0,.135-.426l-1.424-5.712a.416.416,0,0,0-.534-.294,15.975,15.975,0,0,1-5.313.789h0a15.975,15.975,0,0,1-5.313-.789.416.416,0,0,0-.534.294l-1.424,5.712A.426.426,0,0,0,881.981,1760.336Z" transform="translate(-136.965 -1312.121)" fill="none"/>
    <path id="Path_2649" data-name="Path 2649" d="M966.152,626.611a29.971,29.971,0,0,1,8.88,0l.855.128.373-5.719a11.315,11.315,0,0,0-2.137-.923,12.064,12.064,0,0,0-3.247-.521,12.686,12.686,0,0,0-5.951,1.443c.124,2.122.249,3.6.373,5.719Z" transform="translate(-218.44 -199.916)" fill="none"/>
    <path id="Path_2650" data-name="Path 2650" d="M1079.073,613.076a8.494,8.494,0,0,0-2.715.661,11.485,11.485,0,0,1,2.5-.5Z" transform="translate(-327.698 -193.535)" fill="#fff" opacity="0.1"/>
    <path id="Path_2651" data-name="Path 2651" d="M1054.8,647.663l.419-.143Q1055,647.59,1054.8,647.663Z" transform="translate(-306.565 -227.318)" fill="#63aab6" opacity="0.75"/>
    <path id="Path_2652" data-name="Path 2652" d="M974.658,626.025a2.509,2.509,0,0,1,1.253.333l.348-5.338a11.315,11.315,0,0,0-2.137-.923,12.064,12.064,0,0,0-3.247-.521,12.686,12.686,0,0,0-5.951,1.443c.117,1.992.233,3.414.35,5.337a2.508,2.508,0,0,1,1.251-.332Z" transform="translate(-218.44 -199.916)" fill="none"/>
    <path id="Path_2653" data-name="Path 2653" d="M881.981,1808.74a9.07,9.07,0,0,0,1.759,1.188l.092.047a9.033,9.033,0,0,0,4.055.949h2.46a9.034,9.034,0,0,0,4.055-.949l.092-.047a9.07,9.07,0,0,0,1.758-1.188.426.426,0,0,0,.135-.426l-1.263-5.067a1.4,1.4,0,0,1-.838.276H883.946a1.4,1.4,0,0,1-.838-.276l-1.263,5.067A.426.426,0,0,0,881.981,1808.74Z" transform="translate(-136.965 -1360.525)" fill="none"/>
    <path id="Path_2654" data-name="Path 2654" d="M1579.835,1017.193a1.4,1.4,0,0,1-.271.829q.073.351.158.7l.732,3.012a.453.453,0,0,0,.44.346l-.214-8.853-.135-8.148a3.141,3.141,0,0,0-.113-.784l-.38-1.37a.231.231,0,0,0-.449.017l-.037.19a2.5,2.5,0,0,1,.269,1.132Z" transform="translate(-821.103 -575.618)" fill="none"/>
    <path id="Path_2655" data-name="Path 2655" d="M881.981,1760.336a9.076,9.076,0,0,0,1.759,1.188l.092.047a9.033,9.033,0,0,0,4.055.949h2.46a9.034,9.034,0,0,0,4.055-.949l.092-.047a9.075,9.075,0,0,0,1.758-1.188.426.426,0,0,0,.135-.426l-1.424-5.712a.416.416,0,0,0-.534-.294,15.975,15.975,0,0,1-5.313.789h0a15.975,15.975,0,0,1-5.313-.789.416.416,0,0,0-.534.294l-1.424,5.712A.426.426,0,0,0,881.981,1760.336Z" transform="translate(-136.965 -1312.121)" fill="none"/>
    <path id="Path_2656" data-name="Path 2656" d="M966.152,626.611a29.971,29.971,0,0,1,8.88,0l.855.128.373-5.719a11.315,11.315,0,0,0-2.137-.923,12.064,12.064,0,0,0-3.247-.521,12.686,12.686,0,0,0-5.951,1.443c.124,2.122.249,3.6.373,5.719Z" transform="translate(-218.44 -199.916)" fill="none"/>
    <path id="Path_2657" data-name="Path 2657" d="M1556.379,1021.733a.453.453,0,0,0,.44.346l-.214-8.853-.135-8.148a3.124,3.124,0,0,0-.113-.784l-.379-1.37a.231.231,0,0,0-.449.017l-.233,1.183a15.093,15.093,0,0,0-.284,2.913v6.376a22.478,22.478,0,0,0,.635,5.307Z" transform="translate(-797.028 -575.618)" fill="none"/>
    <path id="Path_2658" data-name="Path 2658" d="M919.253,979.765a15.986,15.986,0,0,0,5.314.789h0a15.988,15.988,0,0,0,5.314-.789.416.416,0,0,1,.534.294l.161.645a1.418,1.418,0,0,0,.3-.3,22.437,22.437,0,0,1-.478-4.608v-6.376a15.07,15.07,0,0,1,.284-2.913l.2-.993a2.524,2.524,0,0,0-.993-1.045l-.025.381-.854-.128a29.96,29.96,0,0,0-8.878,0l-.854.128q-.011-.195-.023-.382a2.509,2.509,0,0,0-1.264,2.179v12.928a1.4,1.4,0,0,0,.571,1.131l.161-.645A.416.416,0,0,1,919.253,979.765Z" transform="translate(-172.416 -538.003)"/>
    <path id="Path_2659" data-name="Path 2659" d="M963.951,613.655q.142,0,.284,0a11.463,11.463,0,0,1,5.45,1.513l.062.036-.385,5.874-.993-.133a33.366,33.366,0,0,0-8.841,0l-.993.133-.385-5.874.063-.036a11.229,11.229,0,0,1,2.169-.956A11.635,11.635,0,0,1,963.951,613.655Zm5.533,1.672a11.193,11.193,0,0,0-5.255-1.441,11.365,11.365,0,0,0-5.815,1.441l.36,5.492.716-.1a33.643,33.643,0,0,1,8.917,0l.716.1Z" transform="translate(-211.797 -194.112)" fill="#545454"/>
    <path id="Path_2660" data-name="Path 2660" d="M1594.616,983.522a1.779,1.779,0,0,0-.659.127l-.474.19.024.059a.23.23,0,0,1,.093.032l.406-.162a1.644,1.644,0,0,1,.772-.11l.621.062v-.128l-.608-.061C1594.732,983.525,1594.674,983.522,1594.616,983.522Z" transform="translate(-834.75 -556.771)" fill="#333"/>
    <rect id="Rectangle_8992" data-name="Rectangle 8992" width="1.42" height="0.225" transform="matrix(0.996, -0.084, 0.084, 0.996, 744.83, 429.745)" fill="#545454"/>
    <path id="Path_2661" data-name="Path 2661" d="M1242.374,1055.311h-.3a.119.119,0,0,1-.119-.119v-.636a.268.268,0,0,1,.268-.268h0a.268.268,0,0,1,.268.268v.636A.119.119,0,0,1,1242.374,1055.311Z" transform="translate(-490.074 -626.158)" fill="#545454"/>
    <g id="Group_55679" data-name="Group 55679" transform="translate(752.114 426.956)">
      <path id="Path_2662" data-name="Path 2662" d="M1253.856,995.715a.037.037,0,0,1-.037-.037v-1.647a.037.037,0,1,1,.074,0v1.647A.037.037,0,0,1,1253.856,995.715Z" transform="translate(-1253.819 -993.994)" fill="#545454"/>
    </g>
    <path id="Path_2663" data-name="Path 2663" d="M820.246,983.522a1.779,1.779,0,0,1,.659.127l.475.19-.024.059a.23.23,0,0,0-.093.032l-.406-.162a1.645,1.645,0,0,0-.773-.11l-.622.062v-.128l.609-.061Q820.159,983.522,820.246,983.522Z" transform="translate(-75.808 -556.771)" fill="#333"/>
    <g id="Group_55680" data-name="Group 55680" transform="translate(759.709 446.376)">
      <rect id="Rectangle_8993" data-name="Rectangle 8993" width="0.128" height="1.106" transform="translate(0)" fill="#333"/>
    </g>
    <g id="Group_55681" data-name="Group 55681" transform="translate(744.54 446.376)">
      <rect id="Rectangle_8994" data-name="Rectangle 8994" width="0.128" height="1.002" transform="translate(0)" fill="#333"/>
    </g>
    <path id="Path_2664" data-name="Path 2664" d="M1607.93,1901.9s.222,1.079.1,1.1v.774c-.014-.048-.319.029-.451-.381-.159-.5-.331-1.413-.352-1.455Z" transform="translate(-848.23 -1457.26)" fill="#545454"/>
    <path id="Path_2665" data-name="Path 2665" d="M1640.218,1864.834h0a.127.127,0,0,1,.047,0v0a.132.132,0,0,0-.153-.127h0a2.352,2.352,0,0,0-.6.182l-1.693.774-.108.222,1.908-.868A2.356,2.356,0,0,1,1640.218,1864.834Z" transform="translate(-878.119 -1420.792)" fill="#63aab6"/>
    <path id="Path_2666" data-name="Path 2666" d="M1747.41,1871.261h0a2.349,2.349,0,0,0-.3.068l-.085.964a1.075,1.075,0,0,0,.376-.559l0-.007a1.58,1.58,0,0,0,.055-.466A.13.13,0,0,0,1747.41,1871.261Z" transform="translate(-985.306 -1427.219)" fill="#e6e6e6"/>
    <path id="Path_2667" data-name="Path 2667" d="M1628.621,1909.784v0a.285.285,0,0,0,.324.223l.044-.007a2.507,2.507,0,0,0,.359-.085,1.446,1.446,0,0,1-.19-.375,1.464,1.464,0,0,1-.046-.74l-.22.1-.245.5A.714.714,0,0,0,1628.621,1909.784Z" transform="translate(-869.192 -1464.034)" fill="#ccc"/>
    <path id="Path_2668" data-name="Path 2668" d="M742.247,1864.834h0a.127.127,0,0,0-.047,0v0a.132.132,0,0,1,.154-.127h0a2.35,2.35,0,0,1,.6.182l1.693.774.109.222-1.908-.868A2.355,2.355,0,0,0,742.247,1864.834Z" transform="translate(-0.043 -1420.792)" fill="#63aab6"/>
    <path id="Path_2669" data-name="Path 2669" d="M742.2,1871.261h0a2.354,2.354,0,0,1,.3.068l.085.964a1.075,1.075,0,0,1-.376-.559l0-.007a1.581,1.581,0,0,1-.055-.466A.13.13,0,0,1,742.2,1871.261Z" transform="translate(-0.002 -1427.219)" fill="#bfbfbf"/>
    <path id="Path_2670" data-name="Path 2670" d="M845.464,1909.784v0a.285.285,0,0,1-.324.223L845.1,1910a2.5,2.5,0,0,1-.359-.085,1.448,1.448,0,0,0,.19-.375,1.465,1.465,0,0,0,.046-.74l.22.1.245.5A.714.714,0,0,1,845.464,1909.784Z" transform="translate(-100.59 -1464.034)" fill="#ccc"/>
    <path id="Path_2671" data-name="Path 2671" d="M969.556,683.759a29.969,29.969,0,0,1,8.88,0l.855.128.3-4.625a11.323,11.323,0,0,0-2.066-.883,12.071,12.071,0,0,0-3.247-.521,12.661,12.661,0,0,0-5.883,1.409c.1,1.58.2,2.883.305,4.62Z" transform="translate(-221.844 -257.064)" fill="none"/>
    <path id="Path_2672" data-name="Path 2672" d="M1556.47,1063.358a3.124,3.124,0,0,0-.113-.784l-.379-1.37a.231.231,0,0,0-.449.017l-.233,1.183a15.093,15.093,0,0,0-.284,2.913v5.243a22.477,22.477,0,0,0,.635,5.307l.732,3.012a.453.453,0,0,0,.413.345l-.187-7.718Z" transform="translate(-797.028 -632.763)" fill="none"/>
    <path id="Path_2673" data-name="Path 2673" d="M879.707,526.028a3.2,3.2,0,0,0-1.857,2.344l.3.8a5.77,5.77,0,0,1,1.558-3.143Z" transform="translate(-133.059 -108.189)" fill="#8c2a32"/>
    <path id="Path_2674" data-name="Path 2674" d="M902.233,535.467l.451-.271a2.833,2.833,0,0,0-.961,1.063.048.048,0,0,1-.074.014l-.078-.068a3.177,3.177,0,0,1,.663-.738Z" transform="translate(-156.315 -117.179)" fill="#bfbfbf"/>
    <path id="Path_2675" data-name="Path 2675" d="M878.623,527.6a5.771,5.771,0,0,0-.447,1.409h0c-.01.055-.019.107-.026.157l-.3-.8c.01-.054.024-.119.042-.193l-.01.051.15.4a.057.057,0,0,0,.109-.007,5.761,5.761,0,0,1,1.228-2.422,3.232,3.232,0,0,1,.338-.174A5.785,5.785,0,0,0,878.623,527.6Z" transform="translate(-133.059 -108.189)" fill="#7a242c"/>
    <path id="Path_2676" data-name="Path 2676" d="M879.667,524.431a5.737,5.737,0,0,0-1.549,3.125.032.032,0,0,1-.061.006l-.234-.624a.579.579,0,0,1-.012-.37l.057-.19a3.671,3.671,0,0,1,.549-1.07,3.071,3.071,0,0,1,1.214-.929h0a.032.032,0,0,1,.036.051Zm-1.63,2.9a.029.029,0,0,0,.056,0,5.8,5.8,0,0,1,1.373-2.771.011.011,0,0,0-.013-.017,3.162,3.162,0,0,0-1.6,2.039.545.545,0,0,0,.018.323Z" transform="translate(-132.997 -106.57)" fill="#545454"/>
    <path id="Path_2677" data-name="Path 2677" d="M1643.339,1806.213h1.014v-.016h-1.014Z" transform="translate(-883.638 -1363.424)" fill="#e1f117"/>
    <g id="Group_55682" data-name="Group 55682" transform="translate(757.92 427.073)">
      <path id="Path_2678" data-name="Path 2678" d="M1552.537,999.473a.29.29,0,0,1,.283.216l.379,1.37a3.193,3.193,0,0,1,.115.8l.135,8.148.216,8.918h-.066a.515.515,0,0,1-.5-.395h0l-.732-3.012a22.568,22.568,0,0,1-.637-5.322v-6.376a15.19,15.19,0,0,1,.285-2.925l.233-1.183a.29.29,0,0,1,.278-.238Zm1,19.318-.213-8.782-.135-8.148a3.064,3.064,0,0,0-.111-.768l-.379-1.37a.167.167,0,0,0-.325.012l-.233,1.183a15.081,15.081,0,0,0-.282,2.9v6.376a22.44,22.44,0,0,0,.633,5.292l.732,3.012A.388.388,0,0,0,1553.536,1018.791Z" transform="translate(-1551.73 -999.473)" fill="#545454"/>
    </g>
    <path id="Path_2679" data-name="Path 2679" d="M863.964,1021.733a.453.453,0,0,1-.44.346l.214-8.853.135-8.148a3.132,3.132,0,0,1,.113-.784l.379-1.37a.231.231,0,0,1,.449.017l.232,1.183a15.1,15.1,0,0,1,.284,2.913v6.376a22.481,22.481,0,0,1-.635,5.307Z" transform="translate(-119.012 -575.618)" fill="#acabac"/>
    <path id="Path_2680" data-name="Path 2680" d="M865.255,1049.833v6.849a30.384,30.384,0,0,1-.537,5.7l-.37,1.935.2-8.192.135-8.148a3.133,3.133,0,0,1,.113-.784l.191-.688.031.2A20.472,20.472,0,0,1,865.255,1049.833Z" transform="translate(-119.819 -618.517)" fill="#fff" opacity="0.15"/>
    <path id="Path_2681" data-name="Path 2681" d="M861.272,1901.9s-.221,1.079-.1,1.1v.774c.014-.048.319.029.451-.381.159-.5.331-1.413.352-1.455Z" transform="translate(-116.67 -1457.26)" fill="#545454"/>
    <g id="Group_55683" data-name="Group 55683" transform="translate(744.447 427.073)">
      <path id="Path_2682" data-name="Path 2682" d="M861.3,999.473a.29.29,0,0,1,.278.238l.233,1.183a15.19,15.19,0,0,1,.285,2.925v6.376a22.568,22.568,0,0,1-.637,5.322l-.732,3.012h0a.515.515,0,0,1-.5.395h-.065l.216-8.918.135-8.148a3.2,3.2,0,0,1,.115-.8l.379-1.37a.29.29,0,0,1,.283-.216Zm-.7,19.026.732-3.012a22.437,22.437,0,0,0,.634-5.292v-6.376a15.081,15.081,0,0,0-.282-2.9l-.233-1.183a.167.167,0,0,0-.325-.012l-.38,1.37a3.073,3.073,0,0,0-.111.768l-.135,8.148-.213,8.782A.388.388,0,0,0,860.606,1018.5Z" transform="translate(-860.162 -999.473)" fill="#545454"/>
    </g>
    <path id="Path_2683" data-name="Path 2683" d="M744.55,1866.768l-.044-.007a2.51,2.51,0,0,1-.8-.272l-.964-.522a1.081,1.081,0,0,1-.53-.659l0-.007a1.583,1.583,0,0,1-.055-.468.132.132,0,0,1,.153-.127h0a2.35,2.35,0,0,1,.6.182l1.693.774.245.5a.715.715,0,0,1,.027.378v0A.285.285,0,0,1,744.55,1866.768Z" transform="translate(0 -1420.791)"/>
    <path id="Path_2684" data-name="Path 2684" d="M874.55,1419.431a3.429,3.429,0,0,1,.709-.9,2.664,2.664,0,0,1,.884-.528v-1.31l-1.593.368Z" transform="translate(-129.824 -981.508)" fill="#545454"/>
    <path id="Path_2685" data-name="Path 2685" d="M873.723,1452.445l-1.365.43c-.028.009-.055.019-.082.03a1.091,1.091,0,0,0-.129.062l0-.146a1.214,1.214,0,0,1,.129-.054l.041-.014,1.4-.443.128-.04v.135Z" transform="translate(-127.467 -1016.389)" fill="#4f4f4f"/>
    <path id="Path_2686" data-name="Path 2686" d="M1628.945,1866.768l.044-.007a2.508,2.508,0,0,0,.8-.272l.964-.522a1.082,1.082,0,0,0,.53-.659l0-.007a1.587,1.587,0,0,0,.055-.468.132.132,0,0,0-.153-.127h0a2.35,2.35,0,0,0-.6.182l-1.693.774-.245.5a.715.715,0,0,0-.026.378v0A.285.285,0,0,0,1628.945,1866.768Z" transform="translate(-869.192 -1420.791)"/>
  </g>
</svg>
